{
	"accessors" : 
	[
		{
			"bufferView" : 2,
			"byteOffset" : 0,
			"componentType" : 5126,
			"count" : 9990,
			"max" : 
			[
				0.4995052814483643,
				0.5542271137237549,
				0.5859730243682861,
				1
			],
			"min" : 
			[
				0.006584956776350737,
				0.006584956776350737,
				0.006584956776350737,
				1
			],
			"name" : "accessor_color_m0-PolyPaper9_-387734",
			"type" : "VEC4"
		},
		{
			"bufferView" : 2,
			"byteOffset" : 159840,
			"componentType" : 5126,
			"count" : 9616,
			"max" : 
			[
				0.4995052814483643,
				0.5542271137237549,
				0.5859730243682861,
				1
			],
			"min" : 
			[
				0.2631747424602509,
				0.01606770046055317,
				0.06575388461351395,
				1
			],
			"name" : "accessor_color_m1-PolyPaper9_-387892",
			"type" : "VEC4"
		},
		{
			"bufferView" : 2,
			"byteOffset" : 313696,
			"componentType" : 5126,
			"count" : 9946,
			"max" : 
			[
				0.4995052814483643,
				0.5542271137237549,
				0.5859730243682861,
				1
			],
			"min" : 
			[
				0.2631747424602509,
				0.1390224546194077,
				0.06575388461351395,
				1
			],
			"name" : "accessor_color_m2-PolyPaper9_-387724",
			"type" : "VEC4"
		},
		{
			"bufferView" : 2,
			"byteOffset" : 472832,
			"componentType" : 5126,
			"count" : 7992,
			"max" : 
			[
				0.729918897151947,
				0.5542271137237549,
				0.5859730243682861,
				1
			],
			"min" : 
			[
				0.006584956776350737,
				0.006584956776350737,
				0.006584956776350737,
				1
			],
			"name" : "accessor_color_m3-PolyPaper23_-387894",
			"type" : "VEC4"
		},
		{
			"bufferView" : 0,
			"byteOffset" : 0,
			"componentType" : 5123,
			"count" : 10278,
			"max" : 
			[
				9989
			],
			"min" : 
			[
				0
			],
			"name" : "accessor_indices_0_m0-PolyPaper9_-387734",
			"type" : "SCALAR"
		},
		{
			"bufferView" : 0,
			"byteOffset" : 20556,
			"componentType" : 5123,
			"count" : 10164,
			"max" : 
			[
				9615
			],
			"min" : 
			[
				0
			],
			"name" : "accessor_indices_0_m1-PolyPaper9_-387892",
			"type" : "SCALAR"
		},
		{
			"bufferView" : 0,
			"byteOffset" : 40884,
			"componentType" : 5123,
			"count" : 10374,
			"max" : 
			[
				9945
			],
			"min" : 
			[
				0
			],
			"name" : "accessor_indices_0_m2-PolyPaper9_-387724",
			"type" : "SCALAR"
		},
		{
			"bufferView" : 0,
			"byteOffset" : 61632,
			"componentType" : 5123,
			"count" : 8190,
			"max" : 
			[
				7991
			],
			"min" : 
			[
				0
			],
			"name" : "accessor_indices_0_m3-PolyPaper23_-387894",
			"type" : "SCALAR"
		},
		{
			"bufferView" : 1,
			"byteOffset" : 119880,
			"componentType" : 5126,
			"count" : 9990,
			"max" : 
			[
				0.9995027,
				0.9997289,
				0.9999606
			],
			"min" : 
			[
				-0.995599,
				-0.999826,
				-0.9997232
			],
			"name" : "accessor_normal_m0-PolyPaper9_-387734",
			"type" : "VEC3"
		},
		{
			"bufferView" : 1,
			"byteOffset" : 355152,
			"componentType" : 5126,
			"count" : 9616,
			"max" : 
			[
				0.9989824,
				0.9990726,
				0.9999884999999999
			],
			"min" : 
			[
				-0.9936399,
				-0.9998665,
				-0.999541
			],
			"name" : "accessor_normal_m1-PolyPaper9_-387892",
			"type" : "VEC3"
		},
		{
			"bufferView" : 1,
			"byteOffset" : 589896,
			"componentType" : 5126,
			"count" : 9946,
			"max" : 
			[
				0.9998897,
				0.9974724,
				0.999615
			],
			"min" : 
			[
				-0.9959987,
				-0.9968579,
				-0.9975042
			],
			"name" : "accessor_normal_m2-PolyPaper9_-387724",
			"type" : "VEC3"
		},
		{
			"bufferView" : 1,
			"byteOffset" : 805152,
			"componentType" : 5126,
			"count" : 7992,
			"max" : 
			[
				0.9994217,
				0.999943,
				0.9947906
			],
			"min" : 
			[
				-0.9988753,
				-0.9998849,
				-0.997844
			],
			"name" : "accessor_normal_m3-PolyPaper23_-387894",
			"type" : "VEC3"
		},
		{
			"bufferView" : 1,
			"byteOffset" : 0,
			"componentType" : 5126,
			"count" : 9990,
			"max" : 
			[
				0.3643796,
				0.4191474,
				0.6624687
			],
			"min" : 
			[
				-0.6708358,
				-0.3968529,
				-0.06124572
			],
			"name" : "accessor_position_m0-PolyPaper9_-387734",
			"type" : "VEC3"
		},
		{
			"bufferView" : 1,
			"byteOffset" : 239760,
			"componentType" : 5126,
			"count" : 9616,
			"max" : 
			[
				0.4461924,
				0.3481336,
				0.7657149
			],
			"min" : 
			[
				-1.717102,
				-0.4007282,
				-0.2892423
			],
			"name" : "accessor_position_m1-PolyPaper9_-387892",
			"type" : "VEC3"
		},
		{
			"bufferView" : 1,
			"byteOffset" : 470544,
			"componentType" : 5126,
			"count" : 9946,
			"max" : 
			[
				0.3729443,
				0.3413673,
				0.6728364
			],
			"min" : 
			[
				-0.7171856,
				-0.4383353,
				-0.08237828
			],
			"name" : "accessor_position_m2-PolyPaper9_-387724",
			"type" : "VEC3"
		},
		{
			"bufferView" : 1,
			"byteOffset" : 709248,
			"componentType" : 5126,
			"count" : 7992,
			"max" : 
			[
				-0.02328862,
				0.1866701,
				0.5875152
			],
			"min" : 
			[
				-0.6609907,
				-0.3926343,
				-0.06402550999999999
			],
			"name" : "accessor_position_m3-PolyPaper23_-387894",
			"type" : "VEC3"
		}
	],
	"asset" : 
	{
		"copyright" : "Unknown",
		"generator" : "glTF 1-to-2 Upgrader for Google Blocks",
		"version" : "2.0"
	},
	"bufferViews" : 
	[
		{
			"buffer" : 0,
			"byteLength" : 78012,
			"byteOffset" : 0,
			"name" : "ushortBufferView",
			"target" : 34963
		},
		{
			"buffer" : 0,
			"byteLength" : 901056,
			"byteOffset" : 78012,
			"byteStride" : 12,
			"name" : "vec3BufferView",
			"target" : 34962
		},
		{
			"buffer" : 0,
			"byteLength" : 600704,
			"byteOffset" : 979068,
			"byteStride" : 16,
			"name" : "vec4BufferView",
			"target" : 34962
		}
	],
	"buffers" : 
	[
		{
			"byteLength" : 1579772,
			"name" : "model",
			"uri" : "model.bin"
		}
	],
	"materials" : 
	[
		{
			"alphaMode" : "OPAQUE",
			"doubleSided" : false,
			"name" : "BlocksPaper",
			"pbrMetallicRoughness" : 
			{
				"baseColorFactor" : 
				[
					1,
					1,
					1,
					1
				],
				"metallicFactor" : 0,
				"roughnessFactor" : 0.6
			}
		},
		{
			"alphaMode" : "BLEND",
			"doubleSided" : false,
			"name" : "BlocksGlass",
			"pbrMetallicRoughness" : 
			{
				"baseColorFactor" : 
				[
					0.2,
					0.2,
					1,
					0.3
				],
				"metallicFactor" : 1,
				"roughnessFactor" : 0.4
			}
		},
		{
			"alphaMode" : "OPAQUE",
			"doubleSided" : true,
			"name" : "BlocksGem",
			"pbrMetallicRoughness" : 
			{
				"baseColorFactor" : 
				[
					1,
					0.4,
					1,
					1
				],
				"metallicFactor" : 0,
				"roughnessFactor" : 0.1
			}
		}
	],
	"meshes" : 
	[
		{
			"name" : "mesh_m0-PolyPaper9_-387734",
			"primitives" : 
			[
				{
					"attributes" : 
					{
						"COLOR_0" : 0,
						"NORMAL" : 8,
						"POSITION" : 12
					},
					"indices" : 4,
					"material" : 0,
					"mode" : 4
				}
			]
		},
		{
			"name" : "mesh_m1-PolyPaper9_-387892",
			"primitives" : 
			[
				{
					"attributes" : 
					{
						"COLOR_0" : 1,
						"NORMAL" : 9,
						"POSITION" : 13
					},
					"indices" : 5,
					"material" : 0,
					"mode" : 4
				}
			]
		},
		{
			"name" : "mesh_m2-PolyPaper9_-387724",
			"primitives" : 
			[
				{
					"attributes" : 
					{
						"COLOR_0" : 2,
						"NORMAL" : 10,
						"POSITION" : 14
					},
					"indices" : 6,
					"material" : 0,
					"mode" : 4
				}
			]
		},
		{
			"name" : "mesh_m3-PolyPaper23_-387894",
			"primitives" : 
			[
				{
					"attributes" : 
					{
						"COLOR_0" : 3,
						"NORMAL" : 11,
						"POSITION" : 15
					},
					"indices" : 7,
					"material" : 0,
					"mode" : 4
				}
			]
		}
	],
	"nodes" : 
	[
		{
			"matrix" : 
			[
				1,
				0,
				0,
				0,
				0,
				1,
				0,
				0,
				0,
				0,
				1,
				0,
				0,
				0,
				0,
				1
			],
			"mesh" : 1,
			"name" : "node_MeshObject-1039052416-PolyPaper9"
		},
		{
			"matrix" : 
			[
				1,
				0,
				0,
				0,
				0,
				1,
				0,
				0,
				0,
				0,
				1,
				0,
				0,
				0,
				0,
				1
			],
			"mesh" : 0,
			"name" : "node_MeshObject-1557772480-PolyPaper9"
		},
		{
			"matrix" : 
			[
				1,
				0,
				0,
				0,
				0,
				1,
				0,
				0,
				0,
				0,
				1,
				0,
				0,
				0,
				0,
				1
			],
			"mesh" : 3,
			"name" : "node_MeshObject-1702979264-PolyPaper23"
		},
		{
			"matrix" : 
			[
				1,
				0,
				0,
				0,
				0,
				1,
				0,
				0,
				0,
				0,
				1,
				0,
				0,
				0,
				0,
				1
			],
			"mesh" : 2,
			"name" : "node_MeshObject-2076492544-PolyPaper9"
		}
	],
	"scene" : 0,
	"scenes" : 
	[
		{
			"extras" : {},
			"name" : "defaultScene",
			"nodes" : 
			[
				1,
				0,
				3,
				2
			]
		}
	]
}